<svg width="184" height="82" viewBox="0 0 184 82" fill="none" xmlns="http://www.w3.org/2000/svg">
<path d="M124.908 27.4688V53.473H120.642V42.0985H108.407V53.473H104.142V27.4688H108.407V38.6188H120.642V27.4688H124.908ZM144.03 53.473L138.044 43.0713H134.788V53.473H130.523V27.4688H139.503C141.498 27.4688 143.182 27.818 144.554 28.5164C145.951 29.2149 146.986 30.1503 147.66 31.3227C148.358 32.495 148.707 33.8046 148.707 35.2514C148.707 36.9476 148.208 38.4941 147.211 39.891C146.238 41.2629 144.729 42.1983 142.683 42.6972L149.119 53.473H144.03ZM134.788 39.6665H139.503C141.099 39.6665 142.297 39.2674 143.095 38.4691C143.918 37.6709 144.329 36.5983 144.329 35.2514C144.329 33.9044 143.93 32.8567 143.132 32.1084C142.334 31.3351 141.124 30.9485 139.503 30.9485H134.788V39.6665ZM158.429 25.7851V53.473H154.164V25.7851H158.429ZM182.588 32.8567L169.941 63.1638H165.526L169.717 53.1363L161.597 32.8567H166.349L172.149 48.5715L178.173 32.8567H182.588Z" fill="#56B8FF"/>
<rect opacity="0.2" width="74.8323" height="74.8323" rx="37.4161" fill="#56B8FF"/>
<rect x="32.7391" y="31.1801" width="49.8882" height="49.8882" rx="24.9441" fill="#56B8FF"/>
</svg>
